<svg xmlns="http://www.w3.org/2000/svg" width="23.501" height="18.5" viewBox="0 0 23.501 18.5"><g transform="translate(-52.259 -409.25)"><path d="M1.01,3.75H5.5a.265.265,0,0,1,.26.26V17.75h-5V4.01A.239.239,0,0,1,1.01,3.75Z" transform="translate(52.25 409.25)" fill="none" stroke="#6477f4" stroke-miterlimit="10" stroke-width="1.5"/><path d="M9.51,7.75H14a.265.265,0,0,1,.26.26v9.74h-5V8.01A.239.239,0,0,1,9.51,7.75Z" transform="translate(52.25 409.25)" fill="none" stroke="#6477f4" stroke-miterlimit="10" stroke-width="1.5"/><path d="M18.01.75H22.5a.265.265,0,0,1,.26.26V17.75h-5V1.01A.239.239,0,0,1,18.01.75Z" transform="translate(52.25 409.25)" fill="none" stroke="#6477f4" stroke-miterlimit="10" stroke-width="1.5"/><line x2="22" transform="translate(53 427)" fill="none" stroke="#6477f4" stroke-miterlimit="10" stroke-width="1.5"/></g></svg>