<svg xmlns="http://www.w3.org/2000/svg" width="23.51" height="21.5" viewBox="0 0 23.51 21.5"><g transform="translate(-52.25 -242.25)"><path d="M20.45,20.75H3.05a2.3,2.3,0,0,1-2.3-2.3V3.05A2.3,2.3,0,0,1,3.05.75H20.46a2.3,2.3,0,0,1,2.3,2.3V18.46A2.313,2.313,0,0,1,20.45,20.75Z" transform="translate(52.25 242.25)" fill="none" stroke="#607df4" stroke-miterlimit="10" stroke-width="1.5"/><path d="M20.45,20.75H3.05a2.3,2.3,0,0,1-2.3-2.3V6.75h22v11.7A2.3,2.3,0,0,1,20.45,20.75Z" transform="translate(52.25 242.25)" fill="none" stroke="#607df4" stroke-miterlimit="10" stroke-width="1.5"/><path d="M7.75,20.75H3.05a2.3,2.3,0,0,1-2.3-2.3V6.75h7Z" transform="translate(52.25 242.25)" fill="none" stroke="#607df4" stroke-miterlimit="10" stroke-width="1.5"/></g></svg>