<svg xmlns="http://www.w3.org/2000/svg" width="432.6" height="486.4" viewBox="0 0 432.6 486.4">
  <g id="garbage" transform="translate(-26.9)">
    <g id="Gruppe_1" data-name="Gruppe 1">
      <path id="Pfad_1" data-name="Pfad 1" d="M446,70H344.8V53.5A53.561,53.561,0,0,0,291.3,0H195.1a53.561,53.561,0,0,0-53.5,53.5V70H40.4a13.5,13.5,0,0,0,0,27H64.8V414.2A72.3,72.3,0,0,0,137,486.4H349.4a72.3,72.3,0,0,0,72.2-72.2V97H446a13.5,13.5,0,0,0,0-27ZM168.6,53.5A26.546,26.546,0,0,1,195.1,27h96.2a26.546,26.546,0,0,1,26.5,26.5V70H168.6Zm226,360.7a45.281,45.281,0,0,1-45.2,45.2H137a45.281,45.281,0,0,1-45.2-45.2V97H394.7V414.2Z" fill="#ef878d"/>
      <path id="Pfad_2" data-name="Pfad 2" d="M243.2,411a13.444,13.444,0,0,0,13.5-13.5V158.9a13.5,13.5,0,0,0-27,0V397.4A13.529,13.529,0,0,0,243.2,411Z" fill="#ef878d"/>
      <path id="Pfad_3" data-name="Pfad 3" d="M155.1,396.1a13.444,13.444,0,0,0,13.5-13.5V173.7a13.5,13.5,0,0,0-27,0V382.6A13.507,13.507,0,0,0,155.1,396.1Z" fill="#ef878d"/>
      <path id="Pfad_4" data-name="Pfad 4" d="M331.3,396.1a13.444,13.444,0,0,0,13.5-13.5V173.7a13.5,13.5,0,0,0-27,0V382.6A13.444,13.444,0,0,0,331.3,396.1Z" fill="#ef878d"/>
    </g>
  </g>
</svg>
