<svg xmlns="http://www.w3.org/2000/svg" viewBox="0 0 296.92 276.5"><defs><style>.cls-1{fill:#627af4;}.cls-2{fill:#fff;stroke:#d8e0ff;stroke-miterlimit:10;stroke-width:4px;}.cls-3{fill:#d8e0ff;}.cls-4{fill:#8fa6ef;opacity:0.2;}</style></defs><title>empty-dashboard-illustration</title><g id="Ebene_2" data-name="Ebene 2"><g id="Ebene_1-2" data-name="Ebene 1"><path class="cls-1" d="M250.89,276.5H269.8a11.36,11.36,0,0,0,11.31-10.25L296.87,107A11.38,11.38,0,0,0,285.55,94.5H70.46a11.37,11.37,0,0,0-11.32,10.31L44.26,264.08A11.37,11.37,0,0,0,55.58,276.5Z"/><rect class="cls-2" x="98.6" y="2" width="146" height="141" rx="10.13"/><circle class="cls-3" cx="139.6" cy="58" r="29"/><rect class="cls-2" x="24.6" y="54" width="146" height="141" rx="10.13" transform="translate(-51.63 72) rotate(-32.52)"/><rect class="cls-3" x="33.41" y="68.95" width="123.4" height="102.1" rx="10.13" transform="matrix(0.84, -0.54, 0.54, 0.84, -49.6, 69.96)"/><rect class="cls-2" x="87.6" y="81" width="151" height="141" rx="10.13" transform="translate(-15.02 17.98) rotate(-6.03)"/><path class="cls-1" d="M192.45,121.4l-72.64,6c-5.56.46-10.55-2.71-11.14-7.1h0c-.58-4.38,3.45-8.3,9-8.77l72.64-6c5.56-.47,10.54,2.71,11.13,7.09h0C202,117,198,120.94,192.45,121.4Z"/><path class="cls-1" d="M179,150.14l-58.19,4.52a8.55,8.55,0,0,1-9.09-7.31h0a7.58,7.58,0,0,1,7-8.56l58.19-4.52a8.56,8.56,0,0,1,9.09,7.31h0A7.56,7.56,0,0,1,179,150.14Z"/><path class="cls-1" d="M197.24,175.42l-72.46,6c-5.55.46-10.52-2.71-11.11-7.1h0c-.58-4.38,3.44-8.3,9-8.76l72.46-6c5.55-.46,10.52,2.71,11.11,7.1h0C206.81,171,202.79,175,197.24,175.42Z"/><path class="cls-4" d="M43.46,276.5H264.63a10.36,10.36,0,0,0,10.31-11.41L262.08,139.14a10.35,10.35,0,0,0-10.66-9.3L43.09,137.17a10.35,10.35,0,0,0-10,10.35V266.14A10.36,10.36,0,0,0,43.46,276.5Z"/></g></g></svg>